<svg xmlns="http://www.w3.org/2000/svg" xmlns:xlink="http://www.w3.org/1999/xlink" width="1440" height="1116" viewBox="0 0 1440 1116">
  <defs>
    <pattern id="pattern" preserveAspectRatio="xMidYMid slice" width="100%" height="100%" viewBox="0 0 256 256">
      <image width="256" height="256" xlink:href="Activity-image.png"/>
    </pattern>
    <pattern id="pattern-2" preserveAspectRatio="xMidYMid slice" width="100%" height="100%" viewBox="0 0 256 256">
      <image width="256" height="256" xlink:href="Activity-image2.png"/>
    </pattern>
    <pattern id="pattern-3" preserveAspectRatio="xMidYMid slice" width="100%" height="100%" viewBox="0 0 256 256">
      <image width="256" height="256" xlink:href="Activity-image3.png"/>
    </pattern>
    <pattern id="pattern-4" preserveAspectRatio="xMidYMid slice" width="100%" height="100%" viewBox="0 0 256 256">
      <image width="256" height="256" xlink:href="Activity-image4.png"/>
    </pattern>
    <pattern id="pattern-5" preserveAspectRatio="xMidYMid slice" width="100%" height="100%" viewBox="0 0 256 256">
      <image width="256" height="256" xlink:href="Activity-image5.png"/>
    </pattern>
    <pattern id="pattern-6" preserveAspectRatio="xMidYMid slice" width="100%" height="100%" viewBox="0 0 256 256">
      <image width="256" height="256" xlink:href="Activity-image6.png"/>
    </pattern>
    <pattern id="pattern-7" preserveAspectRatio="xMidYMid slice" width="100%" height="100%" viewBox="0 0 256 256">
      <image width="256" height="256" xlink:href="Activity-image7.png"/>
    </pattern>
    <pattern id="pattern-8" preserveAspectRatio="xMidYMid slice" width="100%" height="100%" viewBox="0 0 256 256">
      <image width="256" height="256" xlink:href="Activity-image8.png"/>
    </pattern>
    <pattern id="pattern-9" preserveAspectRatio="xMidYMid slice" width="100%" height="100%" viewBox="0 0 256 256">
      <image width="256" height="256" xlink:href="Activity-image9.png"/>
    </pattern>
    <clipPath id="clip-path">
      <rect id="Mask" width="20" height="20" rx="4" fill="#ffc200"/>
    </clipPath>
    <pattern id="pattern-10" preserveAspectRatio="none" width="100%" height="100%" viewBox="0 0 256 256">
      <image width="256" height="256" xlink:href="Activity-image10.png"/>
    </pattern>
    <pattern id="pattern-11" preserveAspectRatio="xMidYMid slice" width="100%" height="100%" viewBox="0 0 1080 1350">
      <image width="1080" height="1350" xlink:href="Activity-image11.png"/>
    </pattern>
    <pattern id="pattern-12" preserveAspectRatio="xMidYMid slice" width="100%" height="100%" viewBox="0 0 1080 1080">
      <image width="1080" height="1080" xlink:href="Activity-image12.png"/>
    </pattern>
    <pattern id="pattern-13" preserveAspectRatio="xMidYMid slice" width="100%" height="100%" viewBox="0 0 1080 1350">
      <image width="1080" height="1350" xlink:href="Activity-image13.png"/>
    </pattern>
    <pattern id="pattern-14" preserveAspectRatio="xMidYMid slice" width="100%" height="100%" viewBox="0 0 1080 1350">
      <image width="1080" height="1350" xlink:href="Activity-image14.png"/>
    </pattern>
    <pattern id="pattern-15" preserveAspectRatio="xMidYMid slice" width="100%" height="100%" viewBox="0 0 256 256">
      <image width="256" height="256" xlink:href="Activity-image15.png"/>
    </pattern>
    <pattern id="pattern-16" preserveAspectRatio="xMidYMid slice" width="100%" height="100%" viewBox="0 0 1080 942">
      <image width="1080" height="942" xlink:href="Activity-image16.png"/>
    </pattern>
    <pattern id="pattern-17" preserveAspectRatio="xMidYMid slice" width="100%" height="100%" viewBox="0 0 1080 1350">
      <image width="1080" height="1350" xlink:href="Activity-image17.png"/>
    </pattern>
    <pattern id="pattern-18" preserveAspectRatio="xMidYMid slice" width="100%" height="100%" viewBox="0 0 1080 1350">
      <image width="1080" height="1350" xlink:href="Activity-image18.png"/>
    </pattern>
    <pattern id="pattern-19" preserveAspectRatio="xMidYMid slice" width="100%" height="100%" viewBox="0 0 1080 1080">
      <image width="1080" height="1080" xlink:href="Activity-image19.png"/>
    </pattern>
    <clipPath id="clip-path-5">
      <path id="Clip_2" data-name="Clip 2" d="M0,0H12.532V12.534H0Z" transform="translate(0.001)" fill="none"/>
    </clipPath>
    <clipPath id="clip-path-6">
      <rect width="1170" height="136" fill="none"/>
    </clipPath>
    <pattern id="pattern-20" preserveAspectRatio="xMidYMid slice" width="100%" height="100%" viewBox="0 0 256 256">
      <image width="256" height="256" xlink:href="Activity-image20.png"/>
    </pattern>
    <pattern id="pattern-21" preserveAspectRatio="xMidYMid slice" width="100%" height="100%" viewBox="0 0 256 256">
      <image width="256" height="256" xlink:href="Activity-image21.png"/>
    </pattern>
    <pattern id="pattern-22" preserveAspectRatio="xMidYMid slice" width="100%" height="100%" viewBox="0 0 256 256">
      <image width="256" height="256" xlink:href="Activity-image22.png"/>
    </pattern>
    <clipPath id="clip-path-7">
      <rect id="Mask-5" data-name="Mask" width="40" height="40" rx="8" fill="#ffc200"/>
    </clipPath>
    <clipPath id="clip-Activity">
      <rect width="1440" height="1116"/>
    </clipPath>
  </defs>
  <g id="Activity" clip-path="url(#clip-Activity)">
    <rect width="1440" height="1116" fill="#eeebe5"/>
    <g id="Navigation">
      <rect id="Navigation_background" data-name="Navigation background" width="270" height="1116" fill="rgba(0,0,0,0)"/>
      <g id="Navigation-2" data-name="Navigation">
        <rect id="Menu_Base" data-name="Menu Base" width="270" height="1116"/>
        <g id="Invite" transform="translate(30 1039)">
          <path id="Underline" d="M0,.5H101.5" transform="translate(0 20)" fill="none" stroke="#ffc200" stroke-linecap="square" stroke-miterlimit="10" stroke-width="1" opacity="0.5"/>
          <text id="Invite_your_team_and" data-name="Invite your team and" fill="#ffc200" font-size="14" font-family="SegoeUI-Bold, Segoe UI" font-weight="700"><tspan x="0" y="15">Invite your team</tspan><tspan y="15" xml:space="preserve" fill="#fff"> and </tspan><tspan x="0" y="37" fill="#fff">start collaborating!</tspan><tspan fill="#fff" font-family="Heebo"><tspan x="0" y="59"></tspan></tspan></text>
        </g>
        <g id="Teams" transform="translate(0 695)">
          <g id="Add_a_Team" data-name="Add a Team" transform="translate(0 148)">
            <rect id="Invisible_Base" data-name="Invisible Base" width="270" height="40" fill="rgba(255,255,255,0)"/>
            <text id="_Add_a_Team" data-name="+ Add a Team" transform="translate(30 26)" fill="#ffc200" font-size="14" font-family="SegoeUI-Bold, Segoe UI" font-weight="700"><tspan x="0" y="0">+ Add a Team</tspan></text>
          </g>
          <g id="Frontend" transform="translate(0 108)">
            <rect id="Invisible_Base-2" data-name="Invisible Base" width="270" height="40" fill="rgba(255,255,255,0)"/>
            <text id="Frontend-2" data-name="Frontend" transform="translate(30 26)" fill="#fff" font-size="14" font-family="SegoeUI-Bold, Segoe UI" font-weight="700"><tspan x="0" y="0">Frontend</tspan></text>
            <circle id="Oval" cx="10" cy="10" r="10" transform="translate(230 10)" fill="url(#pattern)"/>
            <circle id="Oval-2" data-name="Oval" cx="10" cy="10" r="10" transform="translate(205 10)" fill="url(#pattern-2)"/>
            <circle id="Oval-3" data-name="Oval" cx="10" cy="10" r="10" transform="translate(180 10)" fill="url(#pattern-3)"/>
            <circle id="Oval-4" data-name="Oval" cx="10" cy="10" r="10" transform="translate(155 10)" fill="url(#pattern-4)"/>
          </g>
          <g id="Backend" transform="translate(0 68)">
            <rect id="Invisible_Base-3" data-name="Invisible Base" width="270" height="40" fill="rgba(255,255,255,0)"/>
            <circle id="Oval-5" data-name="Oval" cx="10" cy="10" r="10" transform="translate(230 10)" fill="url(#pattern-5)"/>
            <circle id="Oval-6" data-name="Oval" cx="10" cy="10" r="10" transform="translate(205 10)" fill="url(#pattern-6)"/>
            <text id="Backend-2" data-name="Backend" transform="translate(30 26)" fill="#fff" font-size="14" font-family="SegoeUI-Bold, Segoe UI" font-weight="700"><tspan x="0" y="0">Backend</tspan></text>
          </g>
          <g id="Designers" transform="translate(0 28)">
            <rect id="Invisible_Base-4" data-name="Invisible Base" width="270" height="40" fill="rgba(255,255,255,0)"/>
            <circle id="Oval-7" data-name="Oval" cx="10" cy="10" r="10" transform="translate(230 10)" fill="url(#pattern-7)"/>
            <circle id="Oval-8" data-name="Oval" cx="10" cy="10" r="10" transform="translate(205 10)" fill="url(#pattern-8)"/>
            <circle id="Oval-9" data-name="Oval" cx="10" cy="10" r="10" transform="translate(180 10)" fill="url(#pattern-9)"/>
            <text id="Designers-2" data-name="Designers" transform="translate(30 26)" fill="#fff" font-size="14" font-family="SegoeUI-Bold, Segoe UI" font-weight="700"><tspan x="0" y="0">Designers</tspan></text>
          </g>
          <text id="Teams-2" data-name="Teams" transform="translate(30 13)" fill="#878787" font-size="12" font-family="SegoeUI-Bold, Segoe UI" font-weight="700"><tspan x="0" y="0">TEAMS</tspan></text>
        </g>
        <g id="Projects" transform="translate(0 437)">
          <g id="Add_a_Project" data-name="Add a Project" transform="translate(0 188)">
            <rect id="Invisible_Base-5" data-name="Invisible Base" width="270" height="40" fill="rgba(255,255,255,0)"/>
            <text id="_Add_a_Project" data-name="+ Add a Project" transform="translate(30 26)" fill="#ffc200" font-size="14" font-family="SegoeUI-Bold, Segoe UI" font-weight="700"><tspan x="0" y="0">+ Add a Project</tspan></text>
          </g>
          <g id="Item" transform="translate(0 148)">
            <rect id="Invisible_Base-6" data-name="Invisible Base" width="270" height="40" fill="rgba(255,255,255,0)"/>
            <text id="Communication_Tool" data-name="Communication Tool" transform="translate(60 26)" fill="#fff" font-size="14" font-family="SegoeUI-Bold, Segoe UI" font-weight="700"><tspan x="0" y="0">Communication Tool</tspan></text>
            <g id="Icon" transform="translate(30 10)">
              <rect id="Mask-6" data-name="Mask" width="20" height="20" rx="4" fill="#ffc200"/>
              <g id="Icon-2" data-name="Icon" clip-path="url(#clip-path)">
                <path id="Rectangle_2_Copy_2" data-name="Rectangle 2 Copy 2" d="M25.2,0V20H0Q3.219,9.7,12.335,8.066T25.2,0Z" transform="translate(-5.102 4.281)" fill="red"/>
                <path id="Rectangle_2" data-name="Rectangle 2" d="M15.992,11.315C24.705,8.9,25.2,0,25.2,0V19.9H0s4.864-5.626,7.926-7.086S13.065,12.126,15.992,11.315Z" transform="translate(-5.102 4.38)" fill="#753ad7"/>
              </g>
            </g>
          </g>
          <g id="Item-2" data-name="Item" transform="translate(0 108)">
            <rect id="Invisible_Base-7" data-name="Invisible Base" width="270" height="40" fill="#202020"/>
            <path id="More_Icon" data-name="More Icon" d="M12,2a2,2,0,1,1,2,2A2,2,0,0,1,12,2ZM6,2A2,2,0,1,1,8,4,2,2,0,0,1,6,2ZM0,2A2,2,0,1,1,2,4,2,2,0,0,1,0,2Z" transform="translate(234 18)" fill="#9b9b9b"/>
            <rect id="Left" width="5" height="40" fill="#ffc200"/>
            <text id="Website_Redesign" data-name="Website Redesign" transform="translate(60 26)" fill="#fff" font-size="14" font-family="SegoeUI-Bold, Segoe UI" font-weight="700"><tspan x="0" y="0">Website Redesign</tspan></text>
            <g id="Icon-3" data-name="Icon" transform="translate(30 10)">
              <rect id="Mask-7" data-name="Mask" width="20" height="20" rx="4" fill="#ffc200"/>
              <g id="Icon-4" data-name="Icon" clip-path="url(#clip-path)">
                <g id="Shapes" transform="translate(-1.701 -9.281)">
                  <path id="Rectangle_2_Copy_2-2" data-name="Rectangle 2 Copy 2" d="M.024,4.007a4,4,0,0,1,4-4L13.648,0a4,4,0,0,1,4,4l-.024,19.968a4,4,0,0,1-4,4L4,27.98a4,4,0,0,1-4-4Z" transform="matrix(0.839, -0.545, 0.545, 0.839, 11.537, 9.614)" fill="#753ad7"/>
                  <g id="Oval_4_Copy" data-name="Oval 4 Copy" transform="translate(0 16.538)" fill="none" stroke="red" stroke-miterlimit="10" stroke-width="4">
                    <ellipse cx="7.664" cy="7.684" rx="7.664" ry="7.684" stroke="none"/>
                    <ellipse cx="7.664" cy="7.684" rx="5.664" ry="5.684" fill="none"/>
                  </g>
                </g>
              </g>
            </g>
          </g>
          <g id="Item-3" data-name="Item" transform="translate(0 68)">
            <rect id="Base" width="270" height="40" fill="rgba(32,32,32,0)"/>
            <text id="CRM_System" data-name="CRM System" transform="translate(60 26)" fill="#fff" font-size="14" font-family="SegoeUI-Bold, Segoe UI" font-weight="700"><tspan x="0" y="0">CRM System</tspan></text>
            <g id="Icon-5" data-name="Icon" transform="translate(30 10)">
              <rect id="Mask-8" data-name="Mask" width="20" height="20" rx="4" fill="#ffc200"/>
              <g id="Icon-6" data-name="Icon" clip-path="url(#clip-path)">
                <path id="Rectangle_2_Copy" data-name="Rectangle 2 Copy" d="M1.008,3.864l2.85-2.851a3.457,3.457,0,0,1,4.882-.006l.006.006L11.6,3.864a3.44,3.44,0,0,1,0,4.865L8.746,11.58a3.457,3.457,0,0,1-4.882.006l-.006-.006L1.008,8.729A3.44,3.44,0,0,1,1.008,3.864Z" transform="translate(11.424 15.378)" fill="red"/>
                <path id="Rectangle_2_Copy_2-3" data-name="Rectangle 2 Copy 2" d="M1.008,3.864l2.85-2.851a3.457,3.457,0,0,1,4.882-.006l.006.006L11.6,3.864a3.44,3.44,0,0,1,0,4.865L8.746,11.58a3.457,3.457,0,0,1-4.882.006l-.006-.006L1.008,8.729A3.44,3.44,0,0,1,1.008,3.864Z" transform="translate(2.479 1.904)" fill="#753ad7"/>
              </g>
            </g>
          </g>
          <g id="Item-4" data-name="Item" transform="translate(0 28)">
            <rect id="Invisible_Base-8" data-name="Invisible Base" width="270" height="40" fill="rgba(255,255,255,0)"/>
            <text id="Dashboard_UI_Kit" data-name="Dashboard UI Kit" transform="translate(60 26)" fill="#fff" font-size="14" font-family="SegoeUI-Bold, Segoe UI" font-weight="700"><tspan x="0" y="0">Dashboard UI Kit</tspan></text>
            <g id="Icon-7" data-name="Icon" transform="translate(30 10)">
              <rect id="Mask-9" data-name="Mask" width="20" height="20" rx="4" fill="#ffc200"/>
              <g id="Icon-8" data-name="Icon" clip-path="url(#clip-path)">
                <path id="Rectangle" d="M8.3,0h5.932V10.662l-.933.065C9.3,11.005,5.515,2.887,8.3,0Z" transform="translate(6.255 -0.368)" fill="red"/>
                <path id="Oval-10" data-name="Oval" d="M5.772,15.806c3.791,0,0-4.394,8.592-5.29S27.621,0,23.83,0,0,3.865,0,7.476,1.98,15.806,5.772,15.806Z" transform="translate(-12.382 12.097)" fill="#753ad7"/>
              </g>
            </g>
          </g>
          <text id="Projects-2" data-name="Projects" transform="translate(30 13)" fill="#878787" font-size="12" font-family="SegoeUI-Bold, Segoe UI" font-weight="700"><tspan x="0" y="0">PROJECTS</tspan></text>
        </g>
        <g id="Menu" transform="translate(0 259)">
          <g id="Item-5" data-name="Item" transform="translate(0 103.903)">
            <rect id="Invisible_Base-9" data-name="Invisible Base" width="270" height="38.483" fill="rgba(255,255,255,0)"/>
            <text id="Notifications" transform="translate(30 26)" fill="#fff" font-size="14" font-family="SegoeUI-Bold, Segoe UI" font-weight="700"><tspan x="0" y="0">Notifications</tspan></text>
            <g id="Count" transform="translate(122.251 10.231)">
              <circle id="Oval-11" data-name="Oval" cx="9.621" cy="9.621" r="9.621" transform="translate(0 0)" fill="#ffc200"/>
              <text id="_3" data-name="3" transform="translate(6 14.121)" fill="#131313" font-size="13" font-family="SegoeUI-Bold, Segoe UI" font-weight="700"><tspan x="0" y="0">3</tspan></text>
            </g>
          </g>
          <g id="Item-6" data-name="Item" transform="translate(0 65.421)">
            <rect id="Invisible_Base-10" data-name="Invisible Base" width="270" height="38.483" fill="rgba(255,255,255,0)"/>
            <text id="My_Tasks" data-name="My Tasks" transform="translate(30 26)" fill="#fff" font-size="14" font-family="SegoeUI-Bold, Segoe UI" font-weight="700"><tspan x="0" y="0">My Tasks</tspan></text>
          </g>
          <g id="Item-7" data-name="Item" transform="translate(0 27.9)">
            <rect id="Invisible_Base-11" data-name="Invisible Base" width="270" height="38.483" fill="rgba(255,255,255,0)"/>
            <text id="Home" transform="translate(30 25)" fill="#fff" font-size="14" font-family="SegoeUI-Bold, Segoe UI" font-weight="700"><tspan x="0" y="0">Home</tspan></text>
          </g>
          <text id="Menu-2" data-name="Menu" transform="translate(30 13)" fill="#878787" font-size="12" font-family="SegoeUI-Bold, Segoe UI" font-weight="700"><tspan x="0" y="0">MENU</tspan></text>
        </g>
        <g id="Stats" transform="translate(30 184)">
          <g id="Open_Tasks" data-name="Open Tasks" transform="translate(114 -22)">
            <text id="Open_Tasks-2" data-name="Open Tasks" transform="translate(0 40)" fill="#fff" font-size="12" font-family="SegoeUI-Bold, Segoe UI" font-weight="700" opacity="0.5"><tspan x="0" y="0">Open Tasks</tspan></text>
            <text id="_11" data-name="11" transform="translate(0 21)" fill="#fff" font-size="20" font-family="SegoeUI-Bold, Segoe UI" font-weight="700"><tspan x="0" y="0">11</tspan></text>
          </g>
          <g id="Completed_Tasks" data-name="Completed Tasks" transform="translate(0 -22)">
            <text id="Completed_Tasks-2" data-name="Completed Tasks" transform="translate(0 40)" fill="#fff" font-size="12" font-family="SegoeUI-Bold, Segoe UI" font-weight="700" opacity="0.5"><tspan x="0" y="0">Completed Tasks</tspan></text>
            <text id="_372" data-name="372" transform="translate(0 21)" fill="#fff" font-size="20" font-family="SegoeUI-Bold, Segoe UI" font-weight="700"><tspan x="0" y="0">372</tspan></text>
          </g>
        </g>
        <g id="User_Info" data-name="User Info" transform="translate(0 84)">
          <rect id="Base-2" data-name="Base" width="270" height="80" transform="translate(0 -1.517)" fill="#202020"/>
          <path id="More_Icon-2" data-name="More Icon" d="M12,2a2,2,0,1,1,2,2A2,2,0,0,1,12,2ZM6,2A2,2,0,1,1,8,4,2,2,0,0,1,6,2ZM0,2A2,2,0,1,1,2,4,2,2,0,0,1,0,2Z" transform="translate(234 38)" fill="#9b9b9b"/>
          <circle id="Userpic" cx="24" cy="24" r="24" transform="translate(30 16)" fill="url(#pattern-10)"/>
          <g id="Name" transform="translate(93 20)">
            <text id="Product_Owner" data-name="Product Owner" transform="translate(0 34)" fill="#9b9b9b" font-size="12" font-family="SegoeUI-Bold, Segoe UI" font-weight="700"><tspan x="0" y="0">Product Owner</tspan></text>
            <text id="Emilee_Simchenko" data-name="Emilee Simchenko" transform="translate(0 15)" fill="#fff" font-size="14" font-family="SegoeUI-Bold, Segoe UI" font-weight="700"><tspan x="0" y="0">Emilee Simchenko</tspan></text>
          </g>
        </g>
        <g id="Top" transform="translate(30.406 30)">
          <g id="Logo">
            <text id="Company_Name" data-name="Company Name" transform="translate(34.594 17)" fill="#fff" font-size="16" font-family="SegoeUIBlack, Segoe UI"><tspan x="0" y="0">PROJECTUS</tspan></text>
            <path id="Logo-2" data-name="Logo" d="M3.1,18.518l-2.7-2.7a1.351,1.351,0,0,1,1.911-1.911l1.745,1.746L8.5,11.2a1.353,1.353,0,0,1,1.913,1.913l-5.4,5.4a1.355,1.355,0,0,1-1.911,0Zm11.762-2.308a1.351,1.351,0,1,1,0-2.7h5.4a1.351,1.351,0,1,1,0,2.7ZM3.1,7.708l-2.7-2.7A1.351,1.351,0,1,1,2.306,3.1L4.051,4.844,8.5.394a1.352,1.352,0,0,1,1.913,1.912l-5.4,5.4a1.355,1.355,0,0,1-.957.4A1.336,1.336,0,0,1,3.1,7.708ZM14.859,5.4a1.351,1.351,0,0,1,0-2.7h5.4a1.351,1.351,0,0,1,0,2.7Z" transform="translate(0 2.543)" fill="#ffc200"/>
          </g>
          <path id="Search" d="M14.663,16a1.328,1.328,0,0,1-.945-.392l-3.477-3.477a.294.294,0,0,1-.027-.032c-.007-.009-.014-.018-.021-.026a6.578,6.578,0,1,1,1.88-1.88l.026.021a.306.306,0,0,1,.033.028l3.476,3.476A1.337,1.337,0,0,1,14.663,16ZM6.578,2.281a4.3,4.3,0,1,0,4.3,4.3A4.3,4.3,0,0,0,6.578,2.281Z" transform="translate(203.594 3)" fill="#fff" opacity="0.5"/>
        </g>
      </g>
    </g>
    <g id="Activity-2" data-name="Activity" transform="translate(490 166)">
      <rect id="Base-3" data-name="Base" width="730" height="920" rx="8" fill="#fff"/>
      <g id="Today" transform="translate(30 35)">
        <path id="Line" d="M1,0V253" transform="translate(19 81)" fill="none" stroke="#ececec" stroke-linecap="square" stroke-miterlimit="10" stroke-width="1"/>
        <g id="Item-8" data-name="Item" transform="translate(0 299)">
          <g id="Images" transform="translate(60 60)">
            <rect id="Image" width="100" height="100" rx="8" fill="url(#pattern-11)"/>
            <rect id="Image-2" data-name="Image" width="100" height="100" rx="8" transform="translate(110)" fill="url(#pattern-12)"/>
            <rect id="Image-3" data-name="Image" width="100" height="100" rx="8" transform="translate(220)" fill="url(#pattern-13)"/>
            <rect id="Image-4" data-name="Image" width="100" height="100" rx="8" transform="translate(330)" fill="url(#pattern-14)"/>
          </g>
          <text id="Name-2" data-name="Name" transform="translate(60 3)" fill="#131313" font-size="16" font-family="SegoeUI-Bold, Segoe UI" font-weight="700"><tspan x="0" y="17">Darika Samak </tspan><tspan y="17" font-family="SegoeUI, Segoe UI" font-weight="400">uploaded 4 files on</tspan><tspan y="17" xml:space="preserve"> An option to search in </tspan><tspan x="0" y="37">current projects or in all projects</tspan></text>
          <text id="Time" transform="translate(670 20)" fill="#131313" font-size="14" font-family="SegoeUI-Bold, Segoe UI" font-weight="700" opacity="0.7"><tspan x="-53.813" y="0">6:02 PM</tspan></text>
          <circle id="Oval-12" data-name="Oval" cx="20" cy="20" r="20" fill="#e3efff"/>
          <path id="Icon-9" data-name="Icon" d="M9.645,13.5H2.354A2.136,2.136,0,0,1,0,11.615V6.524A1.977,1.977,0,0,1,1.766,4.7,1.905,1.905,0,0,0,2.32,5.866l.3.3H2.354c-.534,0-.828.266-.828.355v5.09c0,.088.294.356.828.356H9.646c.534,0,.828-.267.828-.356V6.524c0-.088-.294-.355-.828-.355H9.417l.3-.3a1.908,1.908,0,0,0,.553-1.16A1.972,1.972,0,0,1,12,6.524v5.09A2.136,2.136,0,0,1,9.645,13.5ZM6.026,7.621H6.014a.772.772,0,0,1-.552-.229L3.129,5.054a.75.75,0,0,1-.09-.111c-.007-.01-.014-.021-.02-.032L3.014,4.9c-.015-.025-.028-.051-.041-.079s-.015-.035-.022-.053a.6.6,0,0,1-.023-.078l0-.017a.269.269,0,0,1-.009-.037.78.78,0,0,1,1.319-.691l.978.98V.783a.781.781,0,1,1,1.562,0v4.2L7.8,3.947a.78.78,0,0,1,1.105,0,.787.787,0,0,1,.216.692c0,.014-.006.027-.01.039l0,.013a.827.827,0,0,1-.024.08c-.006.017-.014.034-.022.052a.612.612,0,0,1-.042.079l-.008.014A.3.3,0,0,1,9,4.943a.754.754,0,0,1-.091.111L6.577,7.393A.772.772,0,0,1,6.026,7.621Z" transform="translate(14 13)" fill="#2a2c30"/>
        </g>
        <g id="Item-9" data-name="Item" transform="translate(0 121)">
          <g id="Comment" transform="translate(60 60)">
            <rect id="Base-4" data-name="Base" width="551" height="88" rx="10" transform="translate(24)" fill="#f7f6f3"/>
            <text id="During_a_project_bui" data-name="During a project bui" transform="translate(63 20)" fill="#131313" font-size="15" font-family="SegoeUI, Segoe UI"><tspan x="0" y="16">During a project build, it is necessary to evaluate the product design and </tspan><tspan x="0" y="36">development against project requirements and outcomes</tspan></text>
            <g id="Oval-13" data-name="Oval" transform="translate(0 20)" stroke="#fff" stroke-miterlimit="10" stroke-width="5" fill="url(#pattern-15)">
              <circle cx="24" cy="24" r="24" stroke="none"/>
              <circle cx="24" cy="24" r="26.5" fill="none"/>
            </g>
          </g>
          <text id="Name-3" data-name="Name" transform="translate(60 3)" fill="#131313" font-size="16" font-family="SegoeUI-Bold, Segoe UI" font-weight="700"><tspan x="0" y="17">Emilee Simchenko </tspan><tspan y="17" font-family="SegoeUI, Segoe UI" font-weight="400">commented on</tspan><tspan y="17" xml:space="preserve"> Account for teams and </tspan><tspan x="0" y="37">personal in bottom style</tspan></text>
          <text id="Time-2" data-name="Time" transform="translate(670 20)" fill="#131313" font-size="14" font-family="SegoeUI-Bold, Segoe UI" font-weight="700" opacity="0.7"><tspan x="-53.813" y="0">7:32 PM</tspan></text>
          <circle id="Oval-14" data-name="Oval" cx="20" cy="20" r="20" fill="#fff8dd"/>
          <path id="Icon-10" data-name="Icon" d="M1.2,0h9.6A1.216,1.216,0,0,1,12,1.2V7.8A1.216,1.216,0,0,1,10.8,9H5.089l-1.94,2.135A.2.2,0,0,1,3,11.2a.207.207,0,0,1-.072-.014A.2.2,0,0,1,2.8,11V9H1.2A1.216,1.216,0,0,1,0,7.8V1.2A1.216,1.216,0,0,1,1.2,0Z" transform="translate(14 14)" fill="#3d3a2c"/>
        </g>
        <g id="Item-10" data-name="Item" transform="translate(0 51)">
          <text id="Name-4" data-name="Name" transform="translate(60 3)" fill="#131313" font-size="16" font-family="SegoeUI-Bold, Segoe UI" font-weight="700"><tspan x="0" y="17">Darika Samak </tspan><tspan y="17" font-family="SegoeUI, Segoe UI" font-weight="400">mark as done</tspan><tspan y="17" xml:space="preserve"> Listing on Product Hunt so that </tspan><tspan x="0" y="37">we can reach as many potential users</tspan></text>
          <text id="Time-3" data-name="Time" transform="translate(670 20)" fill="#131313" font-size="14" font-family="SegoeUI-Bold, Segoe UI" font-weight="700" opacity="0.7"><tspan x="-53.813" y="0">8:40 PM</tspan></text>
          <circle id="Oval-15" data-name="Oval" cx="20" cy="20" r="20" fill="#cef9c6"/>
          <path id="Icon-11" data-name="Icon" d="M11.561.44a1.5,1.5,0,0,0-2.124,0L4.5,5.379,2.56,3.441A1.5,1.5,0,0,0,.439,5.562l3,3a1.5,1.5,0,0,0,2.121,0l6-6A1.5,1.5,0,0,0,11.561.44Z" transform="translate(14 16)" fill="#1d201c"/>
        </g>
        <text id="Today-2" data-name="Today" transform="translate(0 15)" fill="#131313" font-size="14" font-family="SegoeUI-Bold, Segoe UI" font-weight="700" opacity="0.5"><tspan x="0" y="0">TODAY</tspan></text>
      </g>
      <g id="Yesterday" transform="translate(30 534)">
        <path id="Line-2" data-name="Line" d="M1,0V253" transform="translate(19 81)" fill="none" stroke="#ececec" stroke-linecap="square" stroke-miterlimit="10" stroke-width="1"/>
        <g id="Item-11" data-name="Item" transform="translate(0 51)">
          <g id="Images-2" data-name="Images" transform="translate(60 60)">
            <rect id="Image-5" data-name="Image" width="100" height="100" rx="8" fill="url(#pattern-16)"/>
            <rect id="Image-6" data-name="Image" width="100" height="100" rx="8" transform="translate(110)" fill="url(#pattern-17)"/>
            <rect id="Image-7" data-name="Image" width="100" height="100" rx="8" transform="translate(220)" fill="url(#pattern-18)"/>
            <rect id="Image-8" data-name="Image" width="100" height="100" rx="8" transform="translate(330)" fill="url(#pattern-19)"/>
          </g>
          <text id="Name-5" data-name="Name" transform="translate(60 3)" fill="#131313" font-size="16" font-family="SegoeUI-Bold, Segoe UI" font-weight="700"><tspan x="0" y="17">Darika Samak </tspan><tspan y="17" font-family="SegoeUI, Segoe UI" font-weight="400">uploaded 4 files on</tspan><tspan y="17" xml:space="preserve"> An option to search in </tspan><tspan x="0" y="37">current projects or in all projects</tspan></text>
          <text id="Time-4" data-name="Time" transform="translate(670 20)" fill="#131313" font-size="14" font-family="SegoeUI-Bold, Segoe UI" font-weight="700" opacity="0.7"><tspan x="-53.813" y="0">6:02 PM</tspan></text>
          <circle id="Oval-16" data-name="Oval" cx="20" cy="20" r="20" fill="#e3efff"/>
          <path id="Icon-12" data-name="Icon" d="M9.645,13.5H2.354A2.136,2.136,0,0,1,0,11.615V6.524A1.977,1.977,0,0,1,1.766,4.7,1.905,1.905,0,0,0,2.32,5.866l.3.3H2.354c-.534,0-.828.266-.828.355v5.09c0,.088.294.356.828.356H9.646c.534,0,.828-.267.828-.356V6.524c0-.088-.294-.355-.828-.355H9.417l.3-.3a1.908,1.908,0,0,0,.553-1.16A1.972,1.972,0,0,1,12,6.524v5.09A2.136,2.136,0,0,1,9.645,13.5ZM6.026,7.621H6.014a.772.772,0,0,1-.552-.229L3.129,5.054a.75.75,0,0,1-.09-.111c-.007-.01-.014-.021-.02-.032L3.014,4.9c-.015-.025-.028-.051-.041-.079s-.015-.035-.022-.053a.6.6,0,0,1-.023-.078l0-.017a.269.269,0,0,1-.009-.037.78.78,0,0,1,1.319-.691l.978.98V.783a.781.781,0,1,1,1.562,0v4.2L7.8,3.947a.78.78,0,0,1,1.105,0,.787.787,0,0,1,.216.692c0,.014-.006.027-.01.039l0,.013a.827.827,0,0,1-.024.08c-.006.017-.014.034-.022.052a.612.612,0,0,1-.042.079l-.008.014A.3.3,0,0,1,9,4.943a.754.754,0,0,1-.091.111L6.577,7.393A.772.772,0,0,1,6.026,7.621Z" transform="translate(14 13)" fill="#2a2c30"/>
        </g>
        <g id="Item-12" data-name="Item" transform="translate(0 241)">
          <text id="Name-6" data-name="Name" transform="translate(60 3)" fill="#131313" font-size="16" font-family="SegoeUI-Bold, Segoe UI" font-weight="700"><tspan x="0" y="17">Darika Samak </tspan><tspan y="17" font-family="SegoeUI, Segoe UI" font-weight="400">mark as done</tspan><tspan y="17" xml:space="preserve"> Listing on Product Hunt so that </tspan><tspan x="0" y="37">we can reach as many potential users</tspan></text>
          <text id="Time-5" data-name="Time" transform="translate(670 20)" fill="#131313" font-size="14" font-family="SegoeUI-Bold, Segoe UI" font-weight="700" opacity="0.7"><tspan x="-53.813" y="0">5:49 PM</tspan></text>
          <circle id="Oval-17" data-name="Oval" cx="20" cy="20" r="20" fill="#cef9c6"/>
          <path id="Icon-13" data-name="Icon" d="M11.561.44a1.5,1.5,0,0,0-2.124,0L4.5,5.379,2.56,3.441A1.5,1.5,0,0,0,.439,5.562l3,3a1.5,1.5,0,0,0,2.121,0l6-6A1.5,1.5,0,0,0,11.561.44Z" transform="translate(14 16)" fill="#1d201c"/>
        </g>
        <g id="Item-13" data-name="Item" transform="translate(0 311)">
          <text id="Name-7" data-name="Name" transform="translate(60 3)" fill="#131313" font-size="16" font-family="SegoeUI-Bold, Segoe UI" font-weight="700"><tspan x="0" y="17">Darika Samak </tspan><tspan y="17" font-family="SegoeUI, Segoe UI" font-weight="400">edited</tspan><tspan y="17" xml:space="preserve"> Listing on Product Hunt so that we can </tspan><tspan x="0" y="37">reach as many potential users</tspan></text>
          <text id="Time-6" data-name="Time" transform="translate(670 20)" fill="#131313" font-size="14" font-family="SegoeUI-Bold, Segoe UI" font-weight="700" opacity="0.7"><tspan x="-53.813" y="0">5:40 PM</tspan></text>
          <circle id="Oval-18" data-name="Oval" cx="20" cy="20" r="20" fill="#f5f0ff"/>
          <g id="edit" transform="translate(14 13)">
            <path id="Clip_2-2" data-name="Clip 2" d="M0,0H12.532V12.534H0Z" transform="translate(0.001)" fill="none"/>
            <g id="edit-2" data-name="edit" clip-path="url(#clip-path-5)">
              <path id="Fill_1" data-name="Fill 1" d="M.488,12.534A.489.489,0,0,1,0,11.988l.49-4.224a.492.492,0,0,1,.14-.29L7.191.921a.009.009,0,0,1,0,0l.005,0a3.128,3.128,0,0,1,4.416,4.431L5.054,11.884l0,0-.005,0-.008.009a.5.5,0,0,1-.29.139l-4.2.49A.355.355,0,0,1,.488,12.534Zm.861-3.653-.3,2.606,2.6-.3Zm8.059-5.06h0L3.541,9.688,4.7,10.849,10.58,4.993,9.408,3.821ZM7.541,1.955h0L1.673,7.82,2.849,9,8.716,3.129,7.541,1.955ZM9.409.979A2.144,2.144,0,0,0,8.273,1.3l2.959,2.958A2.147,2.147,0,0,0,9.409.979Z" transform="translate(0 0)" fill="#211e26"/>
            </g>
          </g>
        </g>
        <text id="Yesterday-2" data-name="Yesterday" transform="translate(0 15)" fill="#131313" font-size="14" font-family="SegoeUI-Bold, Segoe UI" font-weight="700" opacity="0.5"><tspan x="0" y="0">YESTERDAY</tspan></text>
      </g>
    </g>
    <g id="Top-2" data-name="Top" transform="translate(270)">
      <g id="Project_Header" data-name="Project Header" clip-path="url(#clip-path-6)">
        <rect id="Base-5" data-name="Base" width="1170" height="136" fill="#fff"/>
        <g id="Project_Header-2" data-name="Project Header" transform="translate(30 35)">
          <g id="Members" transform="translate(832 9)">
            <circle id="Pic" cx="15" cy="15" r="15" fill="url(#pattern-20)"/>
            <circle id="Pic-2" data-name="Pic" cx="15" cy="15" r="15" transform="translate(35)" fill="url(#pattern-21)"/>
            <circle id="Pic-3" data-name="Pic" cx="15" cy="15" r="15" transform="translate(70)" fill="url(#pattern-22)"/>
            <g id="Share_Button" data-name="Share Button" transform="translate(115 1)">
              <rect id="Base-6" data-name="Base" width="67" height="30" rx="15" fill="#eaeaea"/>
              <text id="Share" transform="translate(15 19)" fill="#131313" font-size="14" font-family="SegoeUI-Bold, Segoe UI" font-weight="700"><tspan x="0" y="0">Share</tspan></text>
            </g>
            <g id="Chat_Button" data-name="Chat Button" transform="translate(197 1)">
              <rect id="Base-7" data-name="Base" width="81" height="30" rx="15" fill="#fff8dd"/>
              <text id="Chat" transform="translate(36 20)" fill="#ffc200" font-size="14" font-family="SegoeUI-Bold, Segoe UI" font-weight="700"><tspan x="0" y="0">Chat</tspan></text>
              <path id="Combined_Shape" data-name="Combined Shape" d="M5.177,12.121c.12.006.24.011.362.011a6.588,6.588,0,0,0,6.593-6.593c0-.122,0-.242-.01-.362a5.54,5.54,0,0,1,2.915,8.406l.727,2.182-2.182-.727a5.54,5.54,0,0,1-8.406-2.916ZM2.417,10.114l-2.183.727L.963,8.659a5.535,5.535,0,1,1,1.454,1.455Z" transform="translate(15 7)" fill="#ffc200"/>
            </g>
          </g>
          <g id="More" transform="translate(331 10)">
            <rect id="Base-8" data-name="Base" width="30" height="30" rx="15" fill="#eaeaea"/>
            <path id="More_Icon-3" data-name="More Icon" d="M12,2a2,2,0,1,1,2,2A2,2,0,0,1,12,2ZM6,2A2,2,0,1,1,8,4,2,2,0,0,1,6,2ZM0,2A2,2,0,1,1,2,4,2,2,0,0,1,0,2Z" transform="translate(7 13)" fill="#9b9b9b"/>
          </g>
          <g id="Title">
            <text id="Website_Redesign-2" data-name="Website Redesign" transform="translate(55)" fill="#131313" font-size="32" font-family="SegoeUIBlack, Segoe UI"><tspan x="0" y="35">Website </tspan></text>
            <g id="Icon-14" data-name="Icon" transform="translate(0 4.547)">
              <rect id="Mask-10" data-name="Mask" width="40" height="40" rx="8" fill="#ffc200"/>
              <g id="Icon-15" data-name="Icon" clip-path="url(#clip-path-7)">
                <g id="Shapes-2" data-name="Shapes" transform="translate(-3 -18.753)">
                  <path id="Rectangle_2_Copy_2-4" data-name="Rectangle 2 Copy 2" d="M.058,4.028a4,4,0,0,1,4-4L31.31,0a4,4,0,0,1,4,4l-.058,47.936a4,4,0,0,1-4,4L4,55.969a4,4,0,0,1-4-4Z" transform="matrix(0.839, -0.545, 0.545, 0.839, 22.665, 19.418)" fill="#753ad7"/>
                  <g id="Oval_4_Copy-2" data-name="Oval 4 Copy" transform="translate(0.598 30.267)" fill="none" stroke="red" stroke-miterlimit="10" stroke-width="6">
                    <ellipse cx="15.328" cy="15.369" rx="15.328" ry="15.369" stroke="none"/>
                    <ellipse cx="15.328" cy="15.369" rx="12.328" ry="12.369" fill="none"/>
                  </g>
                </g>
              </g>
            </g>
          </g>
        </g>
      </g>
      <g id="Tabs" transform="translate(30 102)">
        <text id="Tasks" transform="translate(0 17)" fill="#131313" font-size="16" font-family="SegoeUI-Bold, Segoe UI" font-weight="700" opacity="0.7"><tspan x="0" y="0">Tasks</tspan></text>
        <text id="Kanban" transform="translate(73 17)" fill="#131313" font-size="16" font-family="SegoeUI-Bold, Segoe UI" font-weight="700" opacity="0.7"><tspan x="0" y="0">Kanban</tspan></text>
        <text id="Activity-3" data-name="Activity" transform="translate(158 17)" fill="#131313" font-size="16" font-family="SegoeUI-Bold, Segoe UI" font-weight="700"><tspan x="0" y="0">Activity</tspan></text>
        <text id="Calendar" transform="translate(243 17)" fill="#131313" font-size="16" font-family="SegoeUI-Bold, Segoe UI" font-weight="700" opacity="0.7"><tspan x="0" y="0">Calendar</tspan></text>
        <rect id="Underline-2" data-name="Underline" width="55" height="2" transform="translate(158 32)" fill="#ffc200"/>
        <text id="Files" transform="translate(338 17)" fill="#131313" font-size="16" font-family="SegoeUI-Bold, Segoe UI" font-weight="700" opacity="0.7"><tspan x="0" y="0">Files</tspan></text>
      </g>
    </g>
  </g>
</svg>
