<svg xmlns="http://www.w3.org/2000/svg" xmlns:xlink="http://www.w3.org/1999/xlink" width="1440" height="1014" viewBox="0 0 1440 1014">
  <defs>
    <clipPath id="clip-Set_Up">
      <rect width="1440" height="1014"/>
    </clipPath>
  </defs>
  <g id="Set_Up" data-name="Set Up" clip-path="url(#clip-Set_Up)">
    <rect width="1440" height="1014" fill="#eeebe5"/>
    <rect id="Base" width="730" height="774" rx="8" transform="translate(355 120)" fill="#fff"/>
    <g id="Button" transform="translate(895 764)">
      <rect id="Base-2" data-name="Base" width="150" height="50" rx="25" fill="#cef9c6"/>
      <text id="Next" transform="translate(20 30)" fill="#1d201c" font-size="14" font-family="SegoeUI-Bold, Segoe UI" font-weight="700"><tspan x="0" y="0">Next</tspan></text>
      <text id="_1_3" data-name="1/3" transform="translate(130 30)" fill="#1d201c" font-size="14" font-family="SegoeUI-Bold, Segoe UI" font-weight="700" opacity="0.7"><tspan x="-22.313" y="0">1/3</tspan></text>
    </g>
    <g id="Select" transform="translate(395 457)">
      <rect id="Base-3" data-name="Base" width="315" height="80" rx="10" fill="#f7f6f3"/>
      <text id="Title" transform="translate(60 46)" fill="#131313" font-size="18" font-family="SegoeUI-Bold, Segoe UI" font-weight="700"><tspan x="0" y="0">Marketing</tspan></text>
      <g id="Tick" transform="translate(20 25)">
        <rect id="Base-4" data-name="Base" width="30" height="30" rx="4" fill="#fff"/>
        <path id="Path" d="M11.561.44a1.5,1.5,0,0,0-2.124,0L4.5,5.379,2.56,3.441A1.5,1.5,0,0,0,.439,5.562l3,3a1.5,1.5,0,0,0,2.121,0l6-6A1.5,1.5,0,0,0,11.561.44Z" transform="translate(9 11)" fill="#b8b8b8"/>
      </g>
    </g>
    <g id="Select-2" data-name="Select" transform="translate(730 457)">
      <rect id="Base-5" data-name="Base" width="315" height="80" rx="10" fill="#f7f6f3"/>
      <text id="Title-2" data-name="Title" transform="translate(60 46)" fill="#131313" font-size="18" font-family="SegoeUI-Bold, Segoe UI" font-weight="700"><tspan x="0" y="0">Sales</tspan></text>
      <g id="Tick-2" data-name="Tick" transform="translate(20 25)">
        <rect id="Base-6" data-name="Base" width="30" height="30" rx="4" fill="#fff"/>
        <path id="Path-2" data-name="Path" d="M11.561.44a1.5,1.5,0,0,0-2.124,0L4.5,5.379,2.56,3.441A1.5,1.5,0,0,0,.439,5.562l3,3a1.5,1.5,0,0,0,2.121,0l6-6A1.5,1.5,0,0,0,11.561.44Z" transform="translate(9 11)" fill="#b8b8b8"/>
      </g>
    </g>
    <g id="Select-3" data-name="Select" transform="translate(395 557)">
      <rect id="Base-7" data-name="Base" width="315" height="80" rx="10" fill="#f7f6f3"/>
      <text id="Title-3" data-name="Title" transform="translate(60 46)" fill="#131313" font-size="18" font-family="SegoeUI-Bold, Segoe UI" font-weight="700"><tspan x="0" y="0">Finance</tspan></text>
      <g id="Tick-3" data-name="Tick" transform="translate(20 25)">
        <rect id="Base-8" data-name="Base" width="30" height="30" rx="4" fill="#fff"/>
        <path id="Path-3" data-name="Path" d="M11.561.44a1.5,1.5,0,0,0-2.124,0L4.5,5.379,2.56,3.441A1.5,1.5,0,0,0,.439,5.562l3,3a1.5,1.5,0,0,0,2.121,0l6-6A1.5,1.5,0,0,0,11.561.44Z" transform="translate(9 11)" fill="#b8b8b8"/>
      </g>
    </g>
    <g id="Select-4" data-name="Select" transform="translate(730 557)">
      <rect id="Base-9" data-name="Base" width="315" height="80" rx="10" fill="#f7f6f3"/>
      <text id="Title-4" data-name="Title" transform="translate(60 46)" fill="#131313" font-size="18" font-family="SegoeUI-Bold, Segoe UI" font-weight="700"><tspan x="0" y="0">Managers</tspan></text>
      <g id="Tick-4" data-name="Tick" transform="translate(20 25)">
        <rect id="Base-10" data-name="Base" width="30" height="30" rx="4" fill="#fff"/>
        <path id="Path-4" data-name="Path" d="M11.561.44a1.5,1.5,0,0,0-2.124,0L4.5,5.379,2.56,3.441A1.5,1.5,0,0,0,.439,5.562l3,3a1.5,1.5,0,0,0,2.121,0l6-6A1.5,1.5,0,0,0,11.561.44Z" transform="translate(9 11)" fill="#b8b8b8"/>
      </g>
    </g>
    <g id="Select-5" data-name="Select" transform="translate(395 657)">
      <rect id="Base-11" data-name="Base" width="315" height="80" rx="10" fill="#f7f6f3"/>
      <text id="Title-5" data-name="Title" transform="translate(60 46)" fill="#131313" font-size="18" font-family="SegoeUI-Bold, Segoe UI" font-weight="700"><tspan x="0" y="0">Developement</tspan></text>
      <g id="Tick-5" data-name="Tick" transform="translate(20 25)">
        <rect id="Base-12" data-name="Base" width="30" height="30" rx="4" fill="#fff"/>
        <path id="Path-5" data-name="Path" d="M11.561.44a1.5,1.5,0,0,0-2.124,0L4.5,5.379,2.56,3.441A1.5,1.5,0,0,0,.439,5.562l3,3a1.5,1.5,0,0,0,2.121,0l6-6A1.5,1.5,0,0,0,11.561.44Z" transform="translate(9 11)" fill="#b8b8b8"/>
      </g>
    </g>
    <g id="Select-6" data-name="Select" transform="translate(730 657)">
      <rect id="Base-13" data-name="Base" width="315" height="80" rx="10" fill="#f7f6f3"/>
      <text id="Title-6" data-name="Title" transform="translate(60 46)" fill="#131313" font-size="18" font-family="SegoeUI-Bold, Segoe UI" font-weight="700"><tspan x="0" y="0">Design</tspan></text>
      <g id="Tick-6" data-name="Tick" transform="translate(20 25)">
        <rect id="Base-14" data-name="Base" width="30" height="30" rx="4" fill="#fff"/>
        <path id="Path-6" data-name="Path" d="M11.561.44a1.5,1.5,0,0,0-2.124,0L4.5,5.379,2.56,3.441A1.5,1.5,0,0,0,.439,5.562l3,3a1.5,1.5,0,0,0,2.121,0l6-6A1.5,1.5,0,0,0,11.561.44Z" transform="translate(9 11)" fill="#b8b8b8"/>
      </g>
    </g>
    <text id="Do_you_have_any_of_t" data-name="Do you have any of t" transform="translate(539 341)" fill="#131313" font-size="26" font-family="SegoeUI-Bold, Segoe UI" font-weight="700"><tspan x="26.822" y="28">Do you have any of these</tspan><tspan x="32.078" y="63">teams at your company?</tspan></text>
    <path id="Logo" d="M10.031,59.728,1.28,51.013a4.366,4.366,0,0,1,6.187-6.161l5.653,5.63,14.4-14.353a4.4,4.4,0,0,1,6.2.009,4.347,4.347,0,0,1,0,6.161l-17.5,17.429a4.4,4.4,0,0,1-6.187,0Zm38.093-7.442a4.357,4.357,0,1,1,0-8.715h17.5a4.357,4.357,0,1,1,0,8.715ZM10.031,24.861,1.28,16.146A4.366,4.366,0,0,1,7.466,9.985l5.653,5.639L27.524,1.27a4.4,4.4,0,0,1,6.2.009,4.348,4.348,0,0,1,0,6.161L16.217,24.87a4.4,4.4,0,0,1-3.1,1.272A4.341,4.341,0,0,1,10.031,24.861Zm38.093-7.434a4.357,4.357,0,1,1,0-8.715h17.5a4.357,4.357,0,1,1,0,8.715Z" transform="translate(685 200)" fill="#ffc200"/>
  </g>
</svg>
